<?xml version="1.0" encoding="utf-8"?>
<!-- Generator: Adobe Illustrator 23.0.0, SVG Export Plug-In . SVG Version: 6.00 Build 0)  -->
<svg version="1.1" id="Layer_1" xmlns="http://www.w3.org/2000/svg" xmlns:xlink="http://www.w3.org/1999/xlink" x="0px" y="0px"
	 viewBox="0 0 32 32" style="enable-background:new 0 0 32 32;" xml:space="preserve">
<style type="text/css">
	.st0{fill:#FFFFFF;}
</style>
<g id="_x32__audio_simple_repeat_all">
	<g>
		<path class="st0" d="M27,21.9c0.4-1.1,0.6-2.3,0.6-3.6c0-6.7-5.5-12.2-12.2-12.2c-6,0-11,4.3-12,10h4c1-3.5,4.2-6.1,8-6.1
			c4.6,0,8.3,3.7,8.3,8.3c0,0.6-0.1,1.2-0.2,1.8l-3.7-1.8l2.6,7.6l7.6-2.6L27,21.9z"/>
		<g>
			<path class="st0" d="M6.7,24.3H3.9l-0.5,1.4H1.8l2.7-7.3h1.6l2.7,7.3H7.2L6.7,24.3z M6.2,22.9l-0.9-2.6l-0.9,2.6H6.2z"/>
			<path class="st0" d="M11.2,18.4v5.9h3.5v1.5H9.6v-7.3h1.6V18.4z"/>
			<path class="st0" d="M17.1,18.4v5.9h3.5v1.5h-5.1v-7.3h1.6V18.4z"/>
		</g>
	</g>
</g>
</svg>
