<?xml version="1.0" encoding="utf-8"?>
<!-- Generator: Adobe Illustrator 23.0.0, SVG Export Plug-In . SVG Version: 6.00 Build 0)  -->
<svg version="1.1" id="Layer_1" xmlns="http://www.w3.org/2000/svg" xmlns:xlink="http://www.w3.org/1999/xlink" x="0px" y="0px"
	 viewBox="0 0 32 32" style="enable-background:new 0 0 32 32;" xml:space="preserve">
<style type="text/css">
	.st0{fill:#FFFFFF;}
</style>
<g id="_x32__audio_simple_repeat_all">
	<g>
		<path class="st0" d="M27,21.9c0.4-1.1,0.6-2.3,0.6-3.6c0-6.7-5.5-12.2-12.2-12.2c-6,0-11,4.3-12,10h4c1-3.5,4.2-6.1,8-6.1
			c4.6,0,8.3,3.7,8.3,8.3c0,0.6-0.1,1.2-0.2,1.8l-3.7-1.8l2.6,7.6l7.6-2.6L27,21.9z"/>
		<g>
			<path class="st0" d="M7.9,20.6H6.3c-0.1-0.6-0.6-1-1.3-1c-0.7,0-1.1,0.3-1.1,0.7c0,0.5,0.5,0.7,1.9,1C7.4,21.8,8,22.6,8,23.7
				C8,25.1,6.7,26,5.1,26c-1.7,0-3-1-3.1-2.5h1.6c0.1,0.7,0.7,1.2,1.6,1.2c0.6,0,1.1-0.3,1.1-0.8c0-0.6-0.5-0.8-1.7-1.1
				c-1.5-0.3-2.4-1-2.4-2.3c0-1.3,1.3-2.1,2.9-2.1C6.7,18.3,7.9,19.3,7.9,20.6z"/>
			<path class="st0" d="M8.9,18.4h5.3v1.4h-3.7v1.5h3.4v1.4h-3.4v1.6h3.8v1.4H8.9V18.4z"/>
			<path class="st0" d="M16.9,18.4v5.9h3.5v1.5h-5.1v-7.3H16.9z"/>
		</g>
	</g>
</g>
</svg>
